<svg id="Calque_1" data-name="Calque 1" xmlns="http://www.w3.org/2000/svg" xmlns:xlink="http://www.w3.org/1999/xlink" viewBox="0 0 1409.49 513.15"><defs><style>.cls-1{fill:url(#Or_radial);}.cls-2{fill:url(#Or_radial-2);}.cls-3{fill:url(#Or_radial-3);}.cls-4{fill:#554596;}</style><radialGradient id="Or_radial" cx="386.54" cy="256.7" r="328.01" gradientUnits="userSpaceOnUse"><stop offset="0" stop-color="#fffad2"/><stop offset="0.11" stop-color="#fcf2c1"/><stop offset="0.34" stop-color="#f3df94"/><stop offset="0.37" stop-color="#f2dc8e"/><stop offset="0.69" stop-color="#f0bf00"/><stop offset="1" stop-color="#c9961a"/></radialGradient><radialGradient id="Or_radial-2" cx="708.31" cy="256.7" r="328.01" xlink:href="#Or_radial"/><radialGradient id="Or_radial-3" cx="1022.95" cy="256.45" r="328.01" xlink:href="#Or_radial"/></defs><polygon class="cls-1" points="260.18 0.25 0 0.25 512.9 513.15 773.08 513.15 260.18 0.25"/><polygon class="cls-2" points="321.77 0.25 834.68 513.15 1094.86 513.15 581.95 0.25 321.77 0.25"/><polygon class="cls-3" points="636.41 0 1149.31 512.9 1409.49 512.9 896.59 0 636.41 0"/><polygon class="cls-4" points="260.18 0.25 0 0.25 512.9 513.15 773.08 513.15 260.18 0.25"/><polygon class="cls-4" points="321.77 0.25 834.68 513.15 1094.86 513.15 581.95 0.25 321.77 0.25"/><polygon class="cls-4" points="636.41 0 1149.31 512.9 1409.49 512.9 896.59 0 636.41 0"/></svg>